<!DOCTYPE svg PUBLIC "-//W3C//DTD SVG 20010904//EN" "http://www.w3.org/TR/2001/REC-SVG-20010904/DTD/svg10.dtd">
<svg version="1.0" xmlns="http://www.w3.org/2000/svg" width="200px" height="29px" viewBox="0 0 2000 290" preserveAspectRatio="xMidYMid meet">
<g id="layer101" fill="#000000" stroke="none">
 <path d="M0 247 c0 -42 2 -45 30 -51 20 -4 59 -33 112 -85 44 -44 95 -87 113 -96 79 -37 174 -7 251 78 58 66 119 107 156 107 45 0 79 -23 141 -93 68 -78 122 -107 197 -107 69 0 118 29 187 108 55 62 102 92 149 92 41 0 103 -41 157 -104 56 -65 110 -96 167 -96 63 0 104 23 195 110 54 52 95 82 114 86 29 6 31 9 31 50 0 48 -3 50 -64 33 -28 -8 -65 -36 -127 -95 -48 -46 -99 -88 -115 -94 -45 -18 -88 4 -157 81 -81 91 -144 124 -223 116 -72 -7 -115 -34 -191 -117 -107 -116 -151 -116 -255 1 -67 74 -139 119 -192 119 -70 0 -106 -20 -199 -109 -51 -48 -104 -91 -119 -94 -43 -11 -79 9 -153 87 -75 78 -108 100 -168 111 l-37 7 0 -45z"/>
 </g>

</svg>